<mxfile host="Electron" agent="Mozilla/5.0 (Windows NT 10.0; WOW64) AppleWebKit/537.36 (KHTML, like Gecko) draw.io/24.7.5 Chrome/126.0.6478.183 Electron/31.3.0 Safari/537.36" version="24.7.5">
  <diagram id="C5RBs43oDa-KdzZeNtuy" name="Page-1">
    <mxGraphModel dx="624" dy="1790" grid="1" gridSize="10" guides="1" tooltips="1" connect="1" arrows="1" fold="1" page="1" pageScale="1" pageWidth="827" pageHeight="1169" math="0" shadow="0">
      <root>
        <mxCell id="WIyWlLk6GJQsqaUBKTNV-0" />
        <mxCell id="WIyWlLk6GJQsqaUBKTNV-1" parent="WIyWlLk6GJQsqaUBKTNV-0" />
        <mxCell id="gOm9M10wizrIDPV8sYjz-1" value="" style="endArrow=none;html=1;rounded=0;" parent="WIyWlLk6GJQsqaUBKTNV-1" edge="1">
          <mxGeometry width="50" height="50" relative="1" as="geometry">
            <mxPoint x="404.5" y="-50" as="sourcePoint" />
            <mxPoint x="404.5" y="-80" as="targetPoint" />
          </mxGeometry>
        </mxCell>
        <mxCell id="O9bmTNxPJxb23fZadNko-15" style="edgeStyle=orthogonalEdgeStyle;rounded=0;orthogonalLoop=1;jettySize=auto;html=1;entryX=0.5;entryY=0;entryDx=0;entryDy=0;" edge="1" parent="WIyWlLk6GJQsqaUBKTNV-1" source="gOm9M10wizrIDPV8sYjz-5" target="O9bmTNxPJxb23fZadNko-14">
          <mxGeometry relative="1" as="geometry" />
        </mxCell>
        <mxCell id="gOm9M10wizrIDPV8sYjz-5" value="" style="rhombus;whiteSpace=wrap;html=1;" parent="WIyWlLk6GJQsqaUBKTNV-1" vertex="1">
          <mxGeometry x="378.5" width="61.5" height="50" as="geometry" />
        </mxCell>
        <mxCell id="gOm9M10wizrIDPV8sYjz-9" style="edgeStyle=orthogonalEdgeStyle;rounded=0;orthogonalLoop=1;jettySize=auto;html=1;exitX=0.5;exitY=1;exitDx=0;exitDy=0;" parent="WIyWlLk6GJQsqaUBKTNV-1" edge="1">
          <mxGeometry relative="1" as="geometry">
            <mxPoint x="550" y="130" as="sourcePoint" />
            <mxPoint x="550" y="130" as="targetPoint" />
          </mxGeometry>
        </mxCell>
        <mxCell id="gOm9M10wizrIDPV8sYjz-29" style="edgeStyle=orthogonalEdgeStyle;rounded=0;orthogonalLoop=1;jettySize=auto;html=1;exitX=0.5;exitY=1;exitDx=0;exitDy=0;" parent="WIyWlLk6GJQsqaUBKTNV-1" edge="1">
          <mxGeometry relative="1" as="geometry">
            <mxPoint x="550" y="245" as="sourcePoint" />
            <mxPoint x="550" y="245" as="targetPoint" />
          </mxGeometry>
        </mxCell>
        <mxCell id="gOm9M10wizrIDPV8sYjz-37" style="edgeStyle=orthogonalEdgeStyle;rounded=0;orthogonalLoop=1;jettySize=auto;html=1;exitX=0.5;exitY=1;exitDx=0;exitDy=0;" parent="WIyWlLk6GJQsqaUBKTNV-1" edge="1">
          <mxGeometry relative="1" as="geometry">
            <mxPoint x="550" y="245" as="sourcePoint" />
            <mxPoint x="550" y="245" as="targetPoint" />
          </mxGeometry>
        </mxCell>
        <mxCell id="gOm9M10wizrIDPV8sYjz-42" style="edgeStyle=orthogonalEdgeStyle;rounded=0;orthogonalLoop=1;jettySize=auto;html=1;exitX=0.5;exitY=1;exitDx=0;exitDy=0;" parent="WIyWlLk6GJQsqaUBKTNV-1" edge="1">
          <mxGeometry relative="1" as="geometry">
            <mxPoint x="550" y="360" as="sourcePoint" />
            <mxPoint x="550" y="360" as="targetPoint" />
          </mxGeometry>
        </mxCell>
        <mxCell id="gOm9M10wizrIDPV8sYjz-47" style="edgeStyle=orthogonalEdgeStyle;rounded=0;orthogonalLoop=1;jettySize=auto;html=1;exitX=0.5;exitY=1;exitDx=0;exitDy=0;" parent="WIyWlLk6GJQsqaUBKTNV-1" edge="1">
          <mxGeometry relative="1" as="geometry">
            <mxPoint x="549.5" y="360" as="sourcePoint" />
            <mxPoint x="549.5" y="360" as="targetPoint" />
          </mxGeometry>
        </mxCell>
        <mxCell id="gOm9M10wizrIDPV8sYjz-49" style="edgeStyle=orthogonalEdgeStyle;rounded=0;orthogonalLoop=1;jettySize=auto;html=1;exitX=0.5;exitY=1;exitDx=0;exitDy=0;" parent="WIyWlLk6GJQsqaUBKTNV-1" edge="1">
          <mxGeometry relative="1" as="geometry">
            <mxPoint x="549.5" y="360" as="sourcePoint" />
            <mxPoint x="549.5" y="360" as="targetPoint" />
          </mxGeometry>
        </mxCell>
        <mxCell id="gOm9M10wizrIDPV8sYjz-58" value="-" style="text;html=1;align=center;verticalAlign=middle;resizable=0;points=[];autosize=1;strokeColor=none;fillColor=none;" parent="WIyWlLk6GJQsqaUBKTNV-1" vertex="1">
          <mxGeometry x="302.5" y="170" width="30" height="30" as="geometry" />
        </mxCell>
        <mxCell id="gOm9M10wizrIDPV8sYjz-59" value="-" style="text;html=1;align=center;verticalAlign=middle;resizable=0;points=[];autosize=1;strokeColor=none;fillColor=none;" parent="WIyWlLk6GJQsqaUBKTNV-1" vertex="1">
          <mxGeometry x="302.5" y="60" width="30" height="30" as="geometry" />
        </mxCell>
        <mxCell id="gOm9M10wizrIDPV8sYjz-80" value="-" style="text;html=1;align=center;verticalAlign=middle;resizable=0;points=[];autosize=1;strokeColor=none;fillColor=none;" parent="WIyWlLk6GJQsqaUBKTNV-1" vertex="1">
          <mxGeometry x="302.5" y="482" width="30" height="30" as="geometry" />
        </mxCell>
        <mxCell id="O9bmTNxPJxb23fZadNko-0" value="" style="ellipse;html=1;shape=endState;fillColor=#000000;strokeColor=#ff0000;" vertex="1" parent="WIyWlLk6GJQsqaUBKTNV-1">
          <mxGeometry x="390" y="-150" width="30" height="30" as="geometry" />
        </mxCell>
        <mxCell id="O9bmTNxPJxb23fZadNko-42" style="edgeStyle=orthogonalEdgeStyle;rounded=0;orthogonalLoop=1;jettySize=auto;html=1;exitX=0.5;exitY=1;exitDx=0;exitDy=0;exitPerimeter=0;entryX=0.5;entryY=0;entryDx=0;entryDy=0;" edge="1" parent="WIyWlLk6GJQsqaUBKTNV-1" source="O9bmTNxPJxb23fZadNko-2" target="O9bmTNxPJxb23fZadNko-39">
          <mxGeometry relative="1" as="geometry" />
        </mxCell>
        <mxCell id="O9bmTNxPJxb23fZadNko-2" value="вивід y" style="strokeWidth=2;html=1;shape=mxgraph.flowchart.terminator;whiteSpace=wrap;" vertex="1" parent="WIyWlLk6GJQsqaUBKTNV-1">
          <mxGeometry x="379.25" y="470" width="60" height="30" as="geometry" />
        </mxCell>
        <mxCell id="O9bmTNxPJxb23fZadNko-6" style="edgeStyle=orthogonalEdgeStyle;rounded=0;orthogonalLoop=1;jettySize=auto;html=1;exitX=0.5;exitY=1;exitDx=0;exitDy=0;exitPerimeter=0;entryX=0.5;entryY=0;entryDx=0;entryDy=0;" edge="1" parent="WIyWlLk6GJQsqaUBKTNV-1" source="O9bmTNxPJxb23fZadNko-5" target="gOm9M10wizrIDPV8sYjz-5">
          <mxGeometry relative="1" as="geometry" />
        </mxCell>
        <mxCell id="O9bmTNxPJxb23fZadNko-5" value="A = x * x * sin(x / 2)" style="strokeWidth=2;html=1;shape=mxgraph.flowchart.terminator;whiteSpace=wrap;" vertex="1" parent="WIyWlLk6GJQsqaUBKTNV-1">
          <mxGeometry x="347.5" y="-50" width="114" height="30" as="geometry" />
        </mxCell>
        <mxCell id="O9bmTNxPJxb23fZadNko-9" value="[ x&amp;lt;0 ]" style="text;html=1;align=center;verticalAlign=middle;resizable=0;points=[];autosize=1;strokeColor=none;fillColor=none;" vertex="1" parent="WIyWlLk6GJQsqaUBKTNV-1">
          <mxGeometry x="435" y="-10" width="60" height="30" as="geometry" />
        </mxCell>
        <mxCell id="O9bmTNxPJxb23fZadNko-16" style="edgeStyle=orthogonalEdgeStyle;rounded=0;orthogonalLoop=1;jettySize=auto;html=1;entryX=1;entryY=0.5;entryDx=0;entryDy=0;" edge="1" parent="WIyWlLk6GJQsqaUBKTNV-1" source="O9bmTNxPJxb23fZadNko-12" target="O9bmTNxPJxb23fZadNko-14">
          <mxGeometry relative="1" as="geometry">
            <mxPoint x="500" y="140" as="targetPoint" />
            <Array as="points">
              <mxPoint x="540" y="95" />
            </Array>
          </mxGeometry>
        </mxCell>
        <mxCell id="O9bmTNxPJxb23fZadNko-12" value="&amp;nbsp;B = arctg(e^x)" style="strokeWidth=2;html=1;shape=mxgraph.flowchart.terminator;whiteSpace=wrap;" vertex="1" parent="WIyWlLk6GJQsqaUBKTNV-1">
          <mxGeometry x="486" y="10" width="114" height="30" as="geometry" />
        </mxCell>
        <mxCell id="O9bmTNxPJxb23fZadNko-13" style="edgeStyle=orthogonalEdgeStyle;rounded=0;orthogonalLoop=1;jettySize=auto;html=1;entryX=0;entryY=0.5;entryDx=0;entryDy=0;entryPerimeter=0;" edge="1" parent="WIyWlLk6GJQsqaUBKTNV-1" source="gOm9M10wizrIDPV8sYjz-5" target="O9bmTNxPJxb23fZadNko-12">
          <mxGeometry relative="1" as="geometry" />
        </mxCell>
        <mxCell id="O9bmTNxPJxb23fZadNko-19" style="edgeStyle=orthogonalEdgeStyle;rounded=0;orthogonalLoop=1;jettySize=auto;html=1;exitX=0.5;exitY=1;exitDx=0;exitDy=0;entryX=0.5;entryY=0;entryDx=0;entryDy=0;" edge="1" parent="WIyWlLk6GJQsqaUBKTNV-1" source="O9bmTNxPJxb23fZadNko-14" target="O9bmTNxPJxb23fZadNko-18">
          <mxGeometry relative="1" as="geometry" />
        </mxCell>
        <mxCell id="O9bmTNxPJxb23fZadNko-14" value="" style="rhombus;whiteSpace=wrap;html=1;" vertex="1" parent="WIyWlLk6GJQsqaUBKTNV-1">
          <mxGeometry x="378.5" y="70" width="61.5" height="50" as="geometry" />
        </mxCell>
        <mxCell id="O9bmTNxPJxb23fZadNko-24" style="edgeStyle=orthogonalEdgeStyle;rounded=0;orthogonalLoop=1;jettySize=auto;html=1;exitX=0.5;exitY=1;exitDx=0;exitDy=0;entryX=0.5;entryY=0;entryDx=0;entryDy=0;" edge="1" parent="WIyWlLk6GJQsqaUBKTNV-1" source="O9bmTNxPJxb23fZadNko-18" target="O9bmTNxPJxb23fZadNko-23">
          <mxGeometry relative="1" as="geometry" />
        </mxCell>
        <mxCell id="O9bmTNxPJxb23fZadNko-18" value="" style="rhombus;whiteSpace=wrap;html=1;" vertex="1" parent="WIyWlLk6GJQsqaUBKTNV-1">
          <mxGeometry x="378.5" y="138" width="61.5" height="50" as="geometry" />
        </mxCell>
        <mxCell id="O9bmTNxPJxb23fZadNko-25" style="edgeStyle=orthogonalEdgeStyle;rounded=0;orthogonalLoop=1;jettySize=auto;html=1;exitX=0.5;exitY=1;exitDx=0;exitDy=0;exitPerimeter=0;entryX=1;entryY=0.5;entryDx=0;entryDy=0;" edge="1" parent="WIyWlLk6GJQsqaUBKTNV-1" source="O9bmTNxPJxb23fZadNko-20" target="O9bmTNxPJxb23fZadNko-23">
          <mxGeometry relative="1" as="geometry" />
        </mxCell>
        <mxCell id="O9bmTNxPJxb23fZadNko-20" value="&amp;nbsp;B = 1+x^3/4" style="strokeWidth=2;html=1;shape=mxgraph.flowchart.terminator;whiteSpace=wrap;" vertex="1" parent="WIyWlLk6GJQsqaUBKTNV-1">
          <mxGeometry x="530" y="148" width="114" height="30" as="geometry" />
        </mxCell>
        <mxCell id="O9bmTNxPJxb23fZadNko-21" style="edgeStyle=orthogonalEdgeStyle;rounded=0;orthogonalLoop=1;jettySize=auto;html=1;exitX=1;exitY=0.5;exitDx=0;exitDy=0;entryX=0;entryY=0.5;entryDx=0;entryDy=0;entryPerimeter=0;" edge="1" parent="WIyWlLk6GJQsqaUBKTNV-1" source="O9bmTNxPJxb23fZadNko-18" target="O9bmTNxPJxb23fZadNko-20">
          <mxGeometry relative="1" as="geometry" />
        </mxCell>
        <mxCell id="O9bmTNxPJxb23fZadNko-22" value="[ x&amp;gt; -5 &amp;amp;&amp;amp; x&amp;lt;= 0 ]" style="text;html=1;align=center;verticalAlign=middle;resizable=0;points=[];autosize=1;strokeColor=none;fillColor=none;" vertex="1" parent="WIyWlLk6GJQsqaUBKTNV-1">
          <mxGeometry x="425" y="130" width="120" height="30" as="geometry" />
        </mxCell>
        <mxCell id="O9bmTNxPJxb23fZadNko-28" style="edgeStyle=orthogonalEdgeStyle;rounded=0;orthogonalLoop=1;jettySize=auto;html=1;exitX=0.5;exitY=1;exitDx=0;exitDy=0;entryX=0.5;entryY=0;entryDx=0;entryDy=0;" edge="1" parent="WIyWlLk6GJQsqaUBKTNV-1" source="O9bmTNxPJxb23fZadNko-23" target="O9bmTNxPJxb23fZadNko-27">
          <mxGeometry relative="1" as="geometry" />
        </mxCell>
        <mxCell id="O9bmTNxPJxb23fZadNko-23" value="" style="rhombus;whiteSpace=wrap;html=1;" vertex="1" parent="WIyWlLk6GJQsqaUBKTNV-1">
          <mxGeometry x="378.5" y="210" width="61.5" height="50" as="geometry" />
        </mxCell>
        <mxCell id="O9bmTNxPJxb23fZadNko-26" value="[ x &amp;gt; 0 ]" style="text;html=1;align=center;verticalAlign=middle;resizable=0;points=[];autosize=1;strokeColor=none;fillColor=none;" vertex="1" parent="WIyWlLk6GJQsqaUBKTNV-1">
          <mxGeometry x="435" y="280" width="60" height="30" as="geometry" />
        </mxCell>
        <mxCell id="O9bmTNxPJxb23fZadNko-32" style="edgeStyle=orthogonalEdgeStyle;rounded=0;orthogonalLoop=1;jettySize=auto;html=1;exitX=0.5;exitY=1;exitDx=0;exitDy=0;entryX=0.5;entryY=0;entryDx=0;entryDy=0;" edge="1" parent="WIyWlLk6GJQsqaUBKTNV-1" source="O9bmTNxPJxb23fZadNko-27" target="O9bmTNxPJxb23fZadNko-31">
          <mxGeometry relative="1" as="geometry" />
        </mxCell>
        <mxCell id="O9bmTNxPJxb23fZadNko-27" value="" style="rhombus;whiteSpace=wrap;html=1;" vertex="1" parent="WIyWlLk6GJQsqaUBKTNV-1">
          <mxGeometry x="378.5" y="280" width="61.5" height="50" as="geometry" />
        </mxCell>
        <mxCell id="O9bmTNxPJxb23fZadNko-33" style="edgeStyle=orthogonalEdgeStyle;rounded=0;orthogonalLoop=1;jettySize=auto;html=1;exitX=0.5;exitY=1;exitDx=0;exitDy=0;exitPerimeter=0;entryX=1;entryY=0.5;entryDx=0;entryDy=0;" edge="1" parent="WIyWlLk6GJQsqaUBKTNV-1" source="O9bmTNxPJxb23fZadNko-29" target="O9bmTNxPJxb23fZadNko-31">
          <mxGeometry relative="1" as="geometry" />
        </mxCell>
        <mxCell id="O9bmTNxPJxb23fZadNko-29" value="&amp;nbsp;B = ln|x|-x/5" style="strokeWidth=2;html=1;shape=mxgraph.flowchart.terminator;whiteSpace=wrap;" vertex="1" parent="WIyWlLk6GJQsqaUBKTNV-1">
          <mxGeometry x="510" y="290" width="114" height="30" as="geometry" />
        </mxCell>
        <mxCell id="O9bmTNxPJxb23fZadNko-30" style="edgeStyle=orthogonalEdgeStyle;rounded=0;orthogonalLoop=1;jettySize=auto;html=1;exitX=1;exitY=0.5;exitDx=0;exitDy=0;entryX=0;entryY=0.5;entryDx=0;entryDy=0;entryPerimeter=0;" edge="1" parent="WIyWlLk6GJQsqaUBKTNV-1" source="O9bmTNxPJxb23fZadNko-27" target="O9bmTNxPJxb23fZadNko-29">
          <mxGeometry relative="1" as="geometry" />
        </mxCell>
        <mxCell id="O9bmTNxPJxb23fZadNko-31" value="" style="rhombus;whiteSpace=wrap;html=1;" vertex="1" parent="WIyWlLk6GJQsqaUBKTNV-1">
          <mxGeometry x="378.5" y="350" width="61.5" height="50" as="geometry" />
        </mxCell>
        <mxCell id="O9bmTNxPJxb23fZadNko-34" value="y = A + B" style="strokeWidth=2;html=1;shape=mxgraph.flowchart.terminator;whiteSpace=wrap;" vertex="1" parent="WIyWlLk6GJQsqaUBKTNV-1">
          <mxGeometry x="367.75" y="420" width="83" height="30" as="geometry" />
        </mxCell>
        <mxCell id="O9bmTNxPJxb23fZadNko-35" style="edgeStyle=orthogonalEdgeStyle;rounded=0;orthogonalLoop=1;jettySize=auto;html=1;exitX=0.5;exitY=1;exitDx=0;exitDy=0;entryX=0.5;entryY=0;entryDx=0;entryDy=0;entryPerimeter=0;" edge="1" parent="WIyWlLk6GJQsqaUBKTNV-1" source="O9bmTNxPJxb23fZadNko-31" target="O9bmTNxPJxb23fZadNko-34">
          <mxGeometry relative="1" as="geometry" />
        </mxCell>
        <mxCell id="O9bmTNxPJxb23fZadNko-36" value="ввід х" style="strokeWidth=2;html=1;shape=mxgraph.flowchart.terminator;whiteSpace=wrap;" vertex="1" parent="WIyWlLk6GJQsqaUBKTNV-1">
          <mxGeometry x="375" y="-100" width="60" height="30" as="geometry" />
        </mxCell>
        <mxCell id="O9bmTNxPJxb23fZadNko-37" style="edgeStyle=orthogonalEdgeStyle;rounded=0;orthogonalLoop=1;jettySize=auto;html=1;exitX=0.5;exitY=1;exitDx=0;exitDy=0;entryX=0.5;entryY=0;entryDx=0;entryDy=0;entryPerimeter=0;" edge="1" parent="WIyWlLk6GJQsqaUBKTNV-1" source="O9bmTNxPJxb23fZadNko-0" target="O9bmTNxPJxb23fZadNko-36">
          <mxGeometry relative="1" as="geometry" />
        </mxCell>
        <mxCell id="O9bmTNxPJxb23fZadNko-38" style="edgeStyle=orthogonalEdgeStyle;rounded=0;orthogonalLoop=1;jettySize=auto;html=1;exitX=0.5;exitY=1;exitDx=0;exitDy=0;exitPerimeter=0;entryX=0.5;entryY=0;entryDx=0;entryDy=0;entryPerimeter=0;" edge="1" parent="WIyWlLk6GJQsqaUBKTNV-1" source="O9bmTNxPJxb23fZadNko-34" target="O9bmTNxPJxb23fZadNko-2">
          <mxGeometry relative="1" as="geometry" />
        </mxCell>
        <mxCell id="O9bmTNxPJxb23fZadNko-43" style="edgeStyle=orthogonalEdgeStyle;rounded=0;orthogonalLoop=1;jettySize=auto;html=1;exitX=0.5;exitY=1;exitDx=0;exitDy=0;entryX=0.5;entryY=0;entryDx=0;entryDy=0;" edge="1" parent="WIyWlLk6GJQsqaUBKTNV-1" source="O9bmTNxPJxb23fZadNko-39" target="O9bmTNxPJxb23fZadNko-41">
          <mxGeometry relative="1" as="geometry" />
        </mxCell>
        <mxCell id="O9bmTNxPJxb23fZadNko-39" value="" style="rhombus;whiteSpace=wrap;html=1;" vertex="1" parent="WIyWlLk6GJQsqaUBKTNV-1">
          <mxGeometry x="383" y="520" width="61.5" height="50" as="geometry" />
        </mxCell>
        <mxCell id="O9bmTNxPJxb23fZadNko-41" value="" style="rhombus;whiteSpace=wrap;html=1;" vertex="1" parent="WIyWlLk6GJQsqaUBKTNV-1">
          <mxGeometry x="383" y="600" width="61.5" height="50" as="geometry" />
        </mxCell>
        <mxCell id="O9bmTNxPJxb23fZadNko-44" value="[ x&amp;lt;0 ]" style="text;html=1;align=center;verticalAlign=middle;resizable=0;points=[];autosize=1;strokeColor=none;fillColor=none;" vertex="1" parent="WIyWlLk6GJQsqaUBKTNV-1">
          <mxGeometry x="435" y="512" width="60" height="30" as="geometry" />
        </mxCell>
        <mxCell id="O9bmTNxPJxb23fZadNko-57" style="edgeStyle=orthogonalEdgeStyle;rounded=0;orthogonalLoop=1;jettySize=auto;html=1;exitX=1;exitY=0.5;exitDx=0;exitDy=0;exitPerimeter=0;entryX=1;entryY=0.5;entryDx=0;entryDy=0;" edge="1" parent="WIyWlLk6GJQsqaUBKTNV-1" source="O9bmTNxPJxb23fZadNko-45" target="O9bmTNxPJxb23fZadNko-54">
          <mxGeometry relative="1" as="geometry" />
        </mxCell>
        <mxCell id="O9bmTNxPJxb23fZadNko-45" value="&amp;nbsp;B = arctg(e^x)" style="strokeWidth=2;html=1;shape=mxgraph.flowchart.terminator;whiteSpace=wrap;" vertex="1" parent="WIyWlLk6GJQsqaUBKTNV-1">
          <mxGeometry x="486" y="530" width="114" height="30" as="geometry" />
        </mxCell>
        <mxCell id="O9bmTNxPJxb23fZadNko-47" style="edgeStyle=orthogonalEdgeStyle;rounded=0;orthogonalLoop=1;jettySize=auto;html=1;exitX=1;exitY=0.5;exitDx=0;exitDy=0;entryX=0;entryY=0.5;entryDx=0;entryDy=0;entryPerimeter=0;" edge="1" parent="WIyWlLk6GJQsqaUBKTNV-1" source="O9bmTNxPJxb23fZadNko-39" target="O9bmTNxPJxb23fZadNko-45">
          <mxGeometry relative="1" as="geometry" />
        </mxCell>
        <mxCell id="O9bmTNxPJxb23fZadNko-49" value="[ x &amp;gt; 0 ]" style="text;html=1;align=center;verticalAlign=middle;resizable=0;points=[];autosize=1;strokeColor=none;fillColor=none;" vertex="1" parent="WIyWlLk6GJQsqaUBKTNV-1">
          <mxGeometry x="435" y="600" width="60" height="30" as="geometry" />
        </mxCell>
        <mxCell id="O9bmTNxPJxb23fZadNko-65" style="edgeStyle=orthogonalEdgeStyle;rounded=0;orthogonalLoop=1;jettySize=auto;html=1;exitX=0.5;exitY=1;exitDx=0;exitDy=0;exitPerimeter=0;entryX=0.5;entryY=0;entryDx=0;entryDy=0;" edge="1" parent="WIyWlLk6GJQsqaUBKTNV-1" target="O9bmTNxPJxb23fZadNko-54">
          <mxGeometry relative="1" as="geometry">
            <mxPoint x="592.75" y="720" as="targetPoint" />
            <mxPoint x="592.75" y="640" as="sourcePoint" />
          </mxGeometry>
        </mxCell>
        <mxCell id="O9bmTNxPJxb23fZadNko-50" value="&amp;nbsp;B = ln|x|-x/5" style="strokeWidth=2;html=1;shape=mxgraph.flowchart.terminator;whiteSpace=wrap;" vertex="1" parent="WIyWlLk6GJQsqaUBKTNV-1">
          <mxGeometry x="520" y="610" width="114" height="30" as="geometry" />
        </mxCell>
        <mxCell id="O9bmTNxPJxb23fZadNko-51" style="edgeStyle=orthogonalEdgeStyle;rounded=0;orthogonalLoop=1;jettySize=auto;html=1;exitX=1;exitY=0.5;exitDx=0;exitDy=0;entryX=0;entryY=0.5;entryDx=0;entryDy=0;entryPerimeter=0;" edge="1" parent="WIyWlLk6GJQsqaUBKTNV-1" source="O9bmTNxPJxb23fZadNko-41" target="O9bmTNxPJxb23fZadNko-50">
          <mxGeometry relative="1" as="geometry" />
        </mxCell>
        <mxCell id="O9bmTNxPJxb23fZadNko-56" style="edgeStyle=orthogonalEdgeStyle;rounded=0;orthogonalLoop=1;jettySize=auto;html=1;exitX=0.5;exitY=1;exitDx=0;exitDy=0;exitPerimeter=0;entryX=0.5;entryY=0;entryDx=0;entryDy=0;" edge="1" parent="WIyWlLk6GJQsqaUBKTNV-1" source="O9bmTNxPJxb23fZadNko-52" target="O9bmTNxPJxb23fZadNko-55">
          <mxGeometry relative="1" as="geometry" />
        </mxCell>
        <mxCell id="O9bmTNxPJxb23fZadNko-52" value="&amp;nbsp;B = 1+x^3/4" style="strokeWidth=2;html=1;shape=mxgraph.flowchart.terminator;whiteSpace=wrap;" vertex="1" parent="WIyWlLk6GJQsqaUBKTNV-1">
          <mxGeometry x="356.75" y="680" width="114" height="30" as="geometry" />
        </mxCell>
        <mxCell id="O9bmTNxPJxb23fZadNko-53" style="edgeStyle=orthogonalEdgeStyle;rounded=0;orthogonalLoop=1;jettySize=auto;html=1;exitX=0.5;exitY=1;exitDx=0;exitDy=0;entryX=0.5;entryY=0;entryDx=0;entryDy=0;entryPerimeter=0;" edge="1" parent="WIyWlLk6GJQsqaUBKTNV-1" source="O9bmTNxPJxb23fZadNko-41" target="O9bmTNxPJxb23fZadNko-52">
          <mxGeometry relative="1" as="geometry" />
        </mxCell>
        <mxCell id="O9bmTNxPJxb23fZadNko-66" value="" style="edgeStyle=orthogonalEdgeStyle;rounded=0;orthogonalLoop=1;jettySize=auto;html=1;" edge="1" parent="WIyWlLk6GJQsqaUBKTNV-1" source="O9bmTNxPJxb23fZadNko-54" target="O9bmTNxPJxb23fZadNko-55">
          <mxGeometry relative="1" as="geometry" />
        </mxCell>
        <mxCell id="O9bmTNxPJxb23fZadNko-54" value="" style="rhombus;whiteSpace=wrap;html=1;" vertex="1" parent="WIyWlLk6GJQsqaUBKTNV-1">
          <mxGeometry x="562.5" y="730" width="61.5" height="50" as="geometry" />
        </mxCell>
        <mxCell id="O9bmTNxPJxb23fZadNko-74" style="edgeStyle=orthogonalEdgeStyle;rounded=0;orthogonalLoop=1;jettySize=auto;html=1;exitX=0.5;exitY=1;exitDx=0;exitDy=0;entryX=0.5;entryY=0;entryDx=0;entryDy=0;entryPerimeter=0;" edge="1" parent="WIyWlLk6GJQsqaUBKTNV-1" source="O9bmTNxPJxb23fZadNko-55" target="O9bmTNxPJxb23fZadNko-67">
          <mxGeometry relative="1" as="geometry">
            <mxPoint x="421" y="790" as="targetPoint" />
          </mxGeometry>
        </mxCell>
        <mxCell id="O9bmTNxPJxb23fZadNko-55" value="" style="rhombus;whiteSpace=wrap;html=1;" vertex="1" parent="WIyWlLk6GJQsqaUBKTNV-1">
          <mxGeometry x="390" y="730" width="61.5" height="50" as="geometry" />
        </mxCell>
        <mxCell id="O9bmTNxPJxb23fZadNko-67" value="y = A + B" style="strokeWidth=2;html=1;shape=mxgraph.flowchart.terminator;whiteSpace=wrap;" vertex="1" parent="WIyWlLk6GJQsqaUBKTNV-1">
          <mxGeometry x="383" y="800" width="83" height="30" as="geometry" />
        </mxCell>
        <mxCell id="O9bmTNxPJxb23fZadNko-71" style="edgeStyle=orthogonalEdgeStyle;rounded=0;orthogonalLoop=1;jettySize=auto;html=1;exitX=0.5;exitY=1;exitDx=0;exitDy=0;exitPerimeter=0;entryX=0.5;entryY=0;entryDx=0;entryDy=0;" edge="1" parent="WIyWlLk6GJQsqaUBKTNV-1" source="O9bmTNxPJxb23fZadNko-68" target="O9bmTNxPJxb23fZadNko-69">
          <mxGeometry relative="1" as="geometry" />
        </mxCell>
        <mxCell id="O9bmTNxPJxb23fZadNko-68" value="вивід y" style="strokeWidth=2;html=1;shape=mxgraph.flowchart.terminator;whiteSpace=wrap;" vertex="1" parent="WIyWlLk6GJQsqaUBKTNV-1">
          <mxGeometry x="383" y="860" width="83" height="30" as="geometry" />
        </mxCell>
        <mxCell id="O9bmTNxPJxb23fZadNko-69" value="" style="ellipse;html=1;shape=endState;fillColor=#000000;strokeColor=#ff0000;" vertex="1" parent="WIyWlLk6GJQsqaUBKTNV-1">
          <mxGeometry x="415" y="910" width="30" height="30" as="geometry" />
        </mxCell>
        <mxCell id="O9bmTNxPJxb23fZadNko-72" style="edgeStyle=orthogonalEdgeStyle;rounded=0;orthogonalLoop=1;jettySize=auto;html=1;exitX=0.5;exitY=1;exitDx=0;exitDy=0;exitPerimeter=0;entryX=0.5;entryY=0;entryDx=0;entryDy=0;entryPerimeter=0;" edge="1" parent="WIyWlLk6GJQsqaUBKTNV-1" source="O9bmTNxPJxb23fZadNko-67" target="O9bmTNxPJxb23fZadNko-68">
          <mxGeometry relative="1" as="geometry" />
        </mxCell>
      </root>
    </mxGraphModel>
  </diagram>
</mxfile>
